<mxfile host="Electron" modified="2024-04-06T00:45:49.020Z" agent="Mozilla/5.0 (Macintosh; Intel Mac OS X 10_15_7) AppleWebKit/537.36 (KHTML, like Gecko) draw.io/24.1.0 Chrome/120.0.6099.109 Electron/28.1.0 Safari/537.36" etag="OswX864uVHBmMGaYjnNc" version="24.1.0" type="device">
  <diagram name="Page-1" id="4kx47Z_vcf4Q4TvHGx9w">
    <mxGraphModel dx="1114" dy="842" grid="1" gridSize="10" guides="1" tooltips="1" connect="1" arrows="1" fold="1" page="1" pageScale="1" pageWidth="850" pageHeight="1100" math="0" shadow="0">
      <root>
        <mxCell id="0" />
        <mxCell id="1" parent="0" />
        <mxCell id="8tNPOJJLOjALJbDub3ZB-1" value="&lt;font style=&quot;font-size: 24px;&quot;&gt;%x&lt;/font&gt;" style="ellipse;whiteSpace=wrap;html=1;aspect=fixed;fontFamily=Courier New;fontSize=16;strokeWidth=2;fillColor=#fff2cc;strokeColor=#d6b656;" parent="1" vertex="1">
          <mxGeometry x="138" y="230" width="80" height="80" as="geometry" />
        </mxCell>
        <mxCell id="8tNPOJJLOjALJbDub3ZB-2" value="&lt;font style=&quot;font-size: 24px;&quot;&gt;%y&lt;/font&gt;" style="ellipse;whiteSpace=wrap;html=1;aspect=fixed;fontFamily=Courier New;fontSize=14;strokeWidth=2;fillColor=#fff2cc;strokeColor=#d6b656;" parent="1" vertex="1">
          <mxGeometry x="258" y="230" width="80" height="80" as="geometry" />
        </mxCell>
        <mxCell id="8tNPOJJLOjALJbDub3ZB-3" value="&lt;font style=&quot;font-size: 24px;&quot;&gt;xor&lt;/font&gt;" style="ellipse;whiteSpace=wrap;html=1;aspect=fixed;fontFamily=Courier New;fontSize=14;strokeWidth=2;fillColor=#ffe6cc;strokeColor=#d79b00;" parent="1" vertex="1">
          <mxGeometry x="198" y="450" width="80" height="80" as="geometry" />
        </mxCell>
        <mxCell id="8tNPOJJLOjALJbDub3ZB-4" value="&lt;font style=&quot;font-size: 24px;&quot;&gt;xor&lt;/font&gt;" style="ellipse;whiteSpace=wrap;html=1;aspect=fixed;fontFamily=Courier New;fontSize=14;strokeWidth=2;fillColor=#ffe6cc;strokeColor=#d79b00;" parent="1" vertex="1">
          <mxGeometry x="198" y="560" width="80" height="80" as="geometry" />
        </mxCell>
        <mxCell id="8tNPOJJLOjALJbDub3ZB-5" value="&lt;font style=&quot;font-size: 24px;&quot;&gt;srem&lt;/font&gt;" style="ellipse;whiteSpace=wrap;html=1;aspect=fixed;fontFamily=Courier New;fontSize=14;strokeWidth=2;fillColor=#ffe6cc;strokeColor=#d79b00;" parent="1" vertex="1">
          <mxGeometry x="298" y="660" width="80" height="80" as="geometry" />
        </mxCell>
        <mxCell id="8tNPOJJLOjALJbDub3ZB-6" value="&lt;font style=&quot;font-size: 24px;&quot;&gt;%z&lt;/font&gt;" style="ellipse;whiteSpace=wrap;html=1;aspect=fixed;fontFamily=Courier New;fontSize=14;strokeWidth=2;fillColor=#fff2cc;strokeColor=#d6b656;" parent="1" vertex="1">
          <mxGeometry x="388" y="560" width="80" height="80" as="geometry" />
        </mxCell>
        <mxCell id="8tNPOJJLOjALJbDub3ZB-7" value="&lt;font style=&quot;font-size: 24px;&quot;&gt;ret&lt;/font&gt;" style="ellipse;whiteSpace=wrap;html=1;aspect=fixed;fontFamily=Courier New;fontSize=14;strokeWidth=2;fillColor=#ffe6cc;strokeColor=#d79b00;" parent="1" vertex="1">
          <mxGeometry x="298" y="770" width="80" height="80" as="geometry" />
        </mxCell>
        <mxCell id="8tNPOJJLOjALJbDub3ZB-10" value="&lt;font style=&quot;font-size: 24px;&quot;&gt;sdiv&lt;/font&gt;" style="ellipse;whiteSpace=wrap;html=1;aspect=fixed;fontFamily=Courier New;fontSize=14;strokeWidth=2;fillColor=#ffe6cc;strokeColor=#d79b00;" parent="1" vertex="1">
          <mxGeometry x="198" y="340" width="80" height="80" as="geometry" />
        </mxCell>
        <mxCell id="8tNPOJJLOjALJbDub3ZB-19" value="" style="curved=1;endArrow=none;html=1;rounded=0;strokeWidth=2;dashed=1;endFill=0;" parent="1" edge="1">
          <mxGeometry width="50" height="50" relative="1" as="geometry">
            <mxPoint x="140" y="540" as="sourcePoint" />
            <mxPoint x="150" y="790" as="targetPoint" />
            <Array as="points">
              <mxPoint x="430" y="520" />
            </Array>
          </mxGeometry>
        </mxCell>
        <mxCell id="8tNPOJJLOjALJbDub3ZB-21" value="" style="curved=1;endArrow=none;html=1;rounded=0;strokeWidth=2;dashed=1;endFill=0;" parent="1" edge="1">
          <mxGeometry width="50" height="50" relative="1" as="geometry">
            <mxPoint x="138" y="430" as="sourcePoint" />
            <mxPoint x="170" y="820" as="targetPoint" />
            <Array as="points">
              <mxPoint x="490" y="410" />
            </Array>
          </mxGeometry>
        </mxCell>
        <mxCell id="8tNPOJJLOjALJbDub3ZB-22" value="" style="curved=1;endArrow=none;html=1;rounded=0;strokeWidth=2;dashed=1;endFill=0;" parent="1" edge="1">
          <mxGeometry width="50" height="50" relative="1" as="geometry">
            <mxPoint x="138" y="330" as="sourcePoint" />
            <mxPoint x="190" y="850" as="targetPoint" />
            <Array as="points">
              <mxPoint x="540" y="290" />
            </Array>
          </mxGeometry>
        </mxCell>
        <mxCell id="8tNPOJJLOjALJbDub3ZB-25" value="" style="endArrow=classic;html=1;rounded=0;exitX=0.5;exitY=1;exitDx=0;exitDy=0;entryX=0;entryY=0;entryDx=0;entryDy=0;strokeWidth=2;" parent="1" source="8tNPOJJLOjALJbDub3ZB-1" target="8tNPOJJLOjALJbDub3ZB-10" edge="1">
          <mxGeometry width="50" height="50" relative="1" as="geometry">
            <mxPoint x="178" y="300" as="sourcePoint" />
            <mxPoint x="178" y="360" as="targetPoint" />
          </mxGeometry>
        </mxCell>
        <mxCell id="8tNPOJJLOjALJbDub3ZB-26" value="" style="endArrow=classic;html=1;rounded=0;exitX=0.5;exitY=1;exitDx=0;exitDy=0;entryX=1;entryY=0;entryDx=0;entryDy=0;strokeWidth=2;" parent="1" source="8tNPOJJLOjALJbDub3ZB-2" target="8tNPOJJLOjALJbDub3ZB-10" edge="1">
          <mxGeometry width="50" height="50" relative="1" as="geometry">
            <mxPoint x="188" y="300" as="sourcePoint" />
            <mxPoint x="220" y="362" as="targetPoint" />
          </mxGeometry>
        </mxCell>
        <mxCell id="8tNPOJJLOjALJbDub3ZB-27" value="" style="endArrow=classic;html=1;rounded=0;exitX=0.5;exitY=1;exitDx=0;exitDy=0;entryX=0.5;entryY=0;entryDx=0;entryDy=0;strokeWidth=2;" parent="1" source="8tNPOJJLOjALJbDub3ZB-10" target="8tNPOJJLOjALJbDub3ZB-3" edge="1">
          <mxGeometry width="50" height="50" relative="1" as="geometry">
            <mxPoint x="188" y="300" as="sourcePoint" />
            <mxPoint x="220" y="362" as="targetPoint" />
            <Array as="points" />
          </mxGeometry>
        </mxCell>
        <mxCell id="8tNPOJJLOjALJbDub3ZB-28" value="" style="endArrow=classic;html=1;rounded=0;exitX=0.5;exitY=1;exitDx=0;exitDy=0;entryX=0.5;entryY=0;entryDx=0;entryDy=0;strokeWidth=2;" parent="1" source="8tNPOJJLOjALJbDub3ZB-3" target="8tNPOJJLOjALJbDub3ZB-4" edge="1">
          <mxGeometry width="50" height="50" relative="1" as="geometry">
            <mxPoint x="248" y="430" as="sourcePoint" />
            <mxPoint x="248" y="460" as="targetPoint" />
            <Array as="points">
              <mxPoint x="238" y="540" />
            </Array>
          </mxGeometry>
        </mxCell>
        <mxCell id="8tNPOJJLOjALJbDub3ZB-32" value="" style="endArrow=classic;html=1;rounded=0;entryX=0.5;entryY=0;entryDx=0;entryDy=0;strokeWidth=2;exitX=0.5;exitY=1;exitDx=0;exitDy=0;" parent="1" source="8tNPOJJLOjALJbDub3ZB-5" target="8tNPOJJLOjALJbDub3ZB-7" edge="1">
          <mxGeometry width="50" height="50" relative="1" as="geometry">
            <mxPoint x="248" y="430" as="sourcePoint" />
            <mxPoint x="248" y="460" as="targetPoint" />
          </mxGeometry>
        </mxCell>
        <mxCell id="8tNPOJJLOjALJbDub3ZB-34" value="" style="endArrow=classic;html=1;rounded=0;exitX=1;exitY=1;exitDx=0;exitDy=0;strokeWidth=2;" parent="1" source="8tNPOJJLOjALJbDub3ZB-4" target="8tNPOJJLOjALJbDub3ZB-5" edge="1">
          <mxGeometry width="50" height="50" relative="1" as="geometry">
            <mxPoint x="258" y="440" as="sourcePoint" />
            <mxPoint x="258" y="470" as="targetPoint" />
          </mxGeometry>
        </mxCell>
        <mxCell id="8tNPOJJLOjALJbDub3ZB-35" value="" style="endArrow=classic;html=1;rounded=0;strokeWidth=2;entryX=1;entryY=0;entryDx=0;entryDy=0;" parent="1" source="8tNPOJJLOjALJbDub3ZB-6" target="8tNPOJJLOjALJbDub3ZB-5" edge="1">
          <mxGeometry width="50" height="50" relative="1" as="geometry">
            <mxPoint x="388" y="620" as="sourcePoint" />
            <mxPoint x="320" y="682" as="targetPoint" />
          </mxGeometry>
        </mxCell>
        <mxCell id="8tNPOJJLOjALJbDub3ZB-53" value="&lt;font style=&quot;font-size: 20px;&quot; color=&quot;#202122&quot;&gt;&lt;span style=&quot;background-color: rgb(255, 255, 255);&quot;&gt;&lt;i style=&quot;&quot;&gt;&lt;font style=&quot;font-size: 20px;&quot; face=&quot;Times New Roman&quot;&gt;B&lt;/font&gt;&lt;/i&gt;&lt;font style=&quot;font-size: 20px;&quot; face=&quot;monospace, monospace&quot;&gt; = 2&lt;/font&gt;&lt;/span&gt;&lt;/font&gt;" style="text;whiteSpace=wrap;html=1;" parent="1" vertex="1">
          <mxGeometry x="130" y="330" width="185" height="40" as="geometry" />
        </mxCell>
        <mxCell id="TCIT5zViLuf92jnoW2vM-3" value="" style="endArrow=classic;html=1;rounded=0;exitX=0;exitY=1;exitDx=0;exitDy=0;strokeWidth=2;entryX=1;entryY=0;entryDx=0;entryDy=0;dashed=1;" parent="1" source="8tNPOJJLOjALJbDub3ZB-4" target="TCIT5zViLuf92jnoW2vM-6" edge="1">
          <mxGeometry width="50" height="50" relative="1" as="geometry">
            <mxPoint x="248" y="430" as="sourcePoint" />
            <mxPoint x="180" y="660" as="targetPoint" />
            <Array as="points" />
          </mxGeometry>
        </mxCell>
        <mxCell id="TCIT5zViLuf92jnoW2vM-6" value="&lt;font style=&quot;font-size: 24px;&quot;&gt;ret&lt;/font&gt;" style="ellipse;whiteSpace=wrap;html=1;aspect=fixed;fontFamily=Courier New;fontSize=14;strokeWidth=2;fillColor=#dae8fc;strokeColor=#6c8ebf;dashed=1;" parent="1" vertex="1">
          <mxGeometry x="100" y="660" width="80" height="80" as="geometry" />
        </mxCell>
        <mxCell id="x32yc6CyeuZ8qPAknc5R-1" value="&lt;font style=&quot;font-size: 20px;&quot; color=&quot;#202122&quot;&gt;&lt;span style=&quot;background-color: rgb(255, 255, 255);&quot;&gt;&lt;i style=&quot;&quot;&gt;&lt;font style=&quot;font-size: 20px;&quot; face=&quot;Times New Roman&quot;&gt;B&lt;/font&gt;&lt;/i&gt;&lt;font style=&quot;font-size: 20px;&quot; face=&quot;monospace, monospace&quot;&gt; = 1&lt;/font&gt;&lt;/span&gt;&lt;/font&gt;" style="text;whiteSpace=wrap;html=1;" parent="1" vertex="1">
          <mxGeometry x="130" y="430" width="185" height="40" as="geometry" />
        </mxCell>
        <mxCell id="x32yc6CyeuZ8qPAknc5R-2" value="&lt;font style=&quot;font-size: 20px;&quot; color=&quot;#202122&quot;&gt;&lt;span style=&quot;background-color: rgb(255, 255, 255);&quot;&gt;&lt;i style=&quot;&quot;&gt;&lt;font style=&quot;font-size: 20px;&quot; face=&quot;Times New Roman&quot;&gt;B&lt;/font&gt;&lt;/i&gt;&lt;font style=&quot;font-size: 20px;&quot; face=&quot;monospace, monospace&quot;&gt; = 0&lt;/font&gt;&lt;/span&gt;&lt;/font&gt;" style="text;whiteSpace=wrap;html=1;" parent="1" vertex="1">
          <mxGeometry x="130" y="540" width="185" height="40" as="geometry" />
        </mxCell>
      </root>
    </mxGraphModel>
  </diagram>
</mxfile>
